<svg xmlns="http://www.w3.org/2000/svg" xmlns:xlink="http://www.w3.org/1999/xlink" width="500" zoomAndPan="magnify" viewBox="0 0 375 374.999991" height="500" preserveAspectRatio="xMidYMid meet" version="1.0"><defs><g/><clipPath id="17a8c58e69"><path d="M 0 0 L 371.25 0 L 371.25 371.25 L 0 371.25 Z M 0 0 " clip-rule="nonzero"/></clipPath></defs><g clip-path="url(#17a8c58e69)"><path fill="#334155" d="M 185.625 0 C 83.105469 0 0 83.105469 0 185.625 C 0 288.144531 83.105469 371.25 185.625 371.25 C 288.144531 371.25 371.25 288.144531 371.25 185.625 C 371.25 83.105469 288.144531 0 185.625 0 " fill-opacity="1" fill-rule="nonzero"/></g><g fill="#cbd5e1" fill-opacity="1"><g transform="translate(87.502783, 325.042829)"><g><path d="M 180 -40 C 181.332031 -34.664062 182 -28 182 -20 C 182 -12.332031 181.332031 -5.664062 180 0 L 140 0 C 138.664062 -5.664062 138 -12.332031 138 -20 C 138 -28 138.664062 -34.664062 140 -40 L 125 -40 C 123.664062 -45.664062 123 -52.332031 123 -60 C 123 -68 123.664062 -74.664062 125 -80 L 110 -80 C 108.664062 -85.664062 108 -92.332031 108 -100 C 108 -108 108.664062 -114.664062 110 -120 L 60 -120 C 61.332031 -114.664062 62 -108 62 -100 C 62 -92.332031 61.332031 -85.664062 60 -80 C 61.332031 -74.664062 62 -68 62 -60 C 62 -52.332031 61.332031 -45.664062 60 -40 C 61.332031 -34.664062 62 -28 62 -20 C 62 -12.332031 61.332031 -5.664062 60 0 L 20 0 C 18.664062 -5.664062 18 -12.332031 18 -20 C 18 -28 18.664062 -34.664062 20 -40 C 18.664062 -45.664062 18 -52.332031 18 -60 C 18 -68 18.664062 -74.664062 20 -80 C 18.664062 -85.664062 18 -92.332031 18 -100 C 18 -108 18.664062 -114.664062 20 -120 C 18.664062 -125.664062 18 -132.332031 18 -140 C 18 -148 18.664062 -154.664062 20 -160 C 18.664062 -165.664062 18 -172.332031 18 -180 C 18 -188 18.664062 -194.664062 20 -200 C 18.664062 -205.664062 18 -212.332031 18 -220 C 18 -228 18.664062 -234.664062 20 -240 C 18.664062 -245.664062 18 -252.332031 18 -260 C 18 -268 18.664062 -274.664062 20 -280 L 160 -280 C 161.332031 -274.664062 162 -268 162 -260 C 162 -252.332031 161.332031 -245.664062 160 -240 L 180 -240 C 181.332031 -234.664062 182 -228 182 -220 C 182 -212.332031 181.332031 -205.664062 180 -200 L 170 -200 C 171.332031 -194.664062 172 -188 172 -180 C 172 -172.332031 171.332031 -165.664062 170 -160 L 140 -160 C 141.332031 -154.664062 142 -148 142 -140 C 142 -132.332031 141.332031 -125.664062 140 -120 L 150 -120 C 151.332031 -114.664062 152 -108 152 -100 C 152 -92.332031 151.332031 -85.664062 150 -80 L 165 -80 C 166.332031 -74.664062 167 -68 167 -60 C 167 -52.332031 166.332031 -45.664062 165 -40 Z M 130 -160 C 128.664062 -165.664062 128 -172.332031 128 -180 C 128 -188 128.664062 -194.664062 130 -200 C 128.664062 -205.664062 128 -212.332031 128 -220 C 128 -228 128.664062 -234.664062 130 -240 L 60 -240 C 61.332031 -234.664062 62 -228 62 -220 C 62 -212.332031 61.332031 -205.664062 60 -200 C 61.332031 -194.664062 62 -188 62 -180 C 62 -172.332031 61.332031 -165.664062 60 -160 Z M 130 -160 "/></g></g></g></svg>